<?xml version="1.0" standalone="no"?>
<!DOCTYPE svg PUBLIC "-//W3C//DTD SVG 20010904//EN"
 "http://www.w3.org/TR/2001/REC-SVG-20010904/DTD/svg10.dtd">
<svg version="1.0" xmlns="http://www.w3.org/2000/svg"
 width="895.000000pt" height="1280.000000pt" viewBox="0 0 895.000000 1280.000000"
 preserveAspectRatio="xMidYMid meet">
<metadata>
Created by potrace 1.15, written by Peter Selinger 2001-2017
</metadata>
<g transform="translate(0.000000,1280.000000) scale(0.100000,-0.100000)"
fill="#000000" stroke="none">
<path d="M3750 12791 c-129 -24 -202 -93 -229 -213 -6 -24 -15 -111 -21 -193
-5 -83 -13 -171 -16 -197 l-6 -46 -92 -7 c-617 -43 -1228 -133 -1761 -260
-269 -64 -698 -199 -840 -265 -121 -55 -147 -83 -222 -237 -75 -152 -92 -171
-223 -239 -105 -54 -123 -74 -175 -197 -22 -50 -50 -99 -67 -115 -59 -53 -67
-65 -84 -128 -23 -87 -14 -151 42 -288 109 -267 208 -388 411 -502 49 -28 83
-53 83 -62 0 -9 41 -453 90 -987 151 -1615 354 -3971 465 -5395 8 -107 42
-542 75 -966 53 -684 62 -777 81 -820 12 -27 50 -133 85 -237 80 -235 115
-311 191 -412 280 -370 852 -685 1573 -865 840 -211 1541 -210 2375 2 507 128
1055 363 1315 563 144 111 312 330 360 470 11 31 31 125 45 208 31 187 39 216
80 294 38 72 50 140 65 383 6 91 12 181 15 200 13 94 146 1435 225 2270 297
3141 365 3811 526 5182 4 34 14 64 23 72 30 27 99 45 214 56 304 30 341 42
448 149 83 82 135 171 145 244 5 35 1 54 -20 95 -18 35 -26 67 -26 101 0 59
-13 71 -99 91 -76 18 -96 41 -105 121 -12 107 -44 219 -87 307 -55 113 -128
186 -244 243 -82 41 -89 47 -100 84 -20 66 -51 118 -102 166 -87 84 -98 88
-603 243 -667 203 -884 248 -1815 371 -148 20 -310 42 -360 50 -49 8 -93 15
-97 15 -5 0 -8 33 -8 73 0 93 -16 293 -31 380 -10 64 -13 68 -53 92 -77 45
-150 54 -462 59 -204 3 -344 11 -474 26 -209 23 -443 33 -510 21z m1043 -94
c103 -8 190 -16 193 -19 3 -3 -66 -9 -153 -13 -172 -8 -425 -2 -853 20 -151 8
-283 15 -293 15 -11 0 -15 4 -11 11 9 16 856 4 1117 -14z m-258 -62 c221 -4
409 -19 497 -39 51 -11 53 -13 61 -51 10 -50 22 -625 13 -625 -3 0 -46 9 -94
19 -300 66 -635 78 -1425 49 -37 -2 -67 -1 -67 2 0 3 4 32 9 65 6 33 15 137
21 230 6 94 15 205 21 248 18 124 -7 117 407 112 191 -3 442 -7 557 -10z
m-104 -697 c35 -33 199 -270 416 -603 225 -345 310 -485 357 -586 39 -85 81
-207 74 -214 -22 -23 -920 -37 -933 -15 -13 22 -17 501 -6 700 25 447 49 740
61 740 4 0 18 -10 31 -22z m-164 -65 c13 -95 7 -590 -10 -860 -10 -138 -17
-298 -17 -355 0 -57 -3 -114 -7 -127 l-6 -23 -206 7 c-365 11 -741 45 -741 65
0 21 158 281 276 455 120 176 678 893 696 895 4 0 10 -26 15 -57z m-186 -13
c-24 -63 -84 -146 -211 -290 -55 -63 -154 -194 -220 -290 -65 -97 -146 -205
-180 -240 -41 -44 -75 -94 -104 -155 -24 -49 -79 -138 -122 -197 -64 -90 -82
-108 -103 -108 -14 0 -96 11 -181 24 -266 41 -313 47 -400 54 l-85 7 -2 30
c-4 39 10 55 95 112 38 27 135 100 214 164 261 211 617 469 1148 832 85 59
158 106 162 107 5 0 -1 -22 -11 -50z m585 -14 c425 -224 813 -513 1144 -852
138 -142 326 -361 317 -370 -6 -6 -398 -53 -531 -64 -217 -17 -183 -36 -275
155 -180 375 -443 781 -713 1103 -43 50 -75 92 -71 92 3 0 61 -29 129 -64z
m-1876 30 c-16 -20 -55 -31 -200 -56 -493 -85 -1110 -243 -1683 -430 -121 -39
-221 -69 -224 -67 -12 12 22 92 54 128 69 76 164 114 478 193 493 123 1139
224 1450 227 44 0 89 4 100 9 30 13 39 12 25 -4z m1049 -52 c-30 -31 -161
-128 -299 -221 -486 -330 -798 -564 -1154 -866 l-32 -27 -130 24 c-71 14 -183
36 -249 49 -66 14 -137 28 -159 32 l-39 6 34 35 c61 63 171 130 455 278 291
151 587 292 1044 496 146 65 335 150 420 189 85 38 157 68 159 65 3 -2 -20
-29 -50 -60z m1123 20 c672 -275 1257 -565 1653 -821 145 -95 315 -214 315
-223 0 -20 -150 -64 -343 -100 -117 -21 -225 -43 -242 -48 -29 -8 -37 -2 -215
168 -505 483 -885 782 -1268 1001 -50 28 -89 56 -86 60 12 20 79 6 186 -37z
m1198 -4 c439 -56 812 -138 1315 -290 88 -27 207 -60 265 -75 127 -32 204 -69
237 -112 28 -37 46 -102 37 -137 -5 -22 -8 -23 -57 -14 -71 13 -146 40 -319
114 -434 186 -925 320 -1748 478 -157 30 -296 57 -310 60 -79 16 434 -5 580
-24z m-2561 6 c-2 -1 -195 -92 -429 -201 -730 -339 -1188 -574 -1365 -700
-130 -92 -176 -97 -341 -35 -59 22 -122 40 -140 40 -19 0 -34 3 -34 8 1 10 76
65 140 100 30 17 168 77 305 133 138 56 337 137 443 180 376 154 833 315 1237
438 109 33 201 51 184 37z m3391 -41 c214 -34 471 -107 750 -212 197 -75 196
-74 119 -68 -66 5 -148 29 -404 118 -142 49 -371 102 -645 148 -96 16 -182 31
-190 34 -38 11 277 -5 370 -20z m-1361 -21 c544 -79 1246 -259 1816 -464 154
-56 466 -178 474 -186 2 -2 -9 -20 -24 -41 -105 -142 -221 -137 -515 21 -198
106 -320 157 -695 293 -218 79 -537 185 -900 299 -148 46 -274 86 -280 88 -21
9 21 5 124 -10z m-2534 -14 c-11 -5 -99 -34 -195 -65 -522 -169 -1075 -391
-1575 -630 l-160 -76 -75 25 c-42 15 -84 26 -94 26 -18 0 -17 2 5 26 73 78
164 119 669 297 583 206 873 292 1265 372 171 35 192 39 160 25z m-635 -61
c-41 -17 -293 -102 -560 -191 -577 -191 -682 -230 -820 -308 -158 -88 -218
-104 -284 -76 -32 13 -86 77 -86 101 0 15 127 55 171 55 21 0 81 21 145 49
225 101 443 165 974 285 184 42 369 85 410 95 113 29 136 24 50 -10z m3186
-34 c182 -32 310 -74 739 -245 176 -70 374 -148 440 -173 66 -26 194 -76 285
-112 91 -36 190 -75 220 -87 68 -26 146 -75 183 -116 l29 -30 -54 -7 c-29 -4
-120 -27 -203 -50 -229 -65 -194 -69 -326 31 -318 241 -736 484 -1174 684
-268 122 -262 119 -244 119 9 1 56 -6 105 -14z m2484 -290 c6 -8 20 -46 29
-85 17 -67 17 -70 0 -70 -22 0 -32 -18 -64 -112 -31 -91 -75 -138 -132 -138
l-38 0 37 30 c88 73 152 217 146 328 -4 63 0 73 22 47z m231 -243 c15 -9 54
-37 87 -61 59 -43 61 -46 69 -100 32 -238 -66 -371 -349 -470 -131 -45 -588
-174 -893 -251 -179 -45 -422 -96 -718 -149 -501 -91 -565 -105 -734 -157
-105 -33 -130 -38 -229 -38 -96 -1 -115 2 -133 18 -16 14 -29 17 -63 12 -125
-18 -471 -37 -758 -43 -997 -18 -2116 111 -2946 339 -75 20 -85 21 -151 9 -87
-17 -117 -10 -133 29 -7 16 -17 34 -24 39 -6 5 -64 21 -130 36 -65 15 -207 55
-315 90 -108 35 -257 82 -331 105 -297 92 -380 165 -380 332 0 101 23 146 103
196 34 22 68 47 76 56 7 9 16 16 20 16 3 0 6 -39 7 -88 1 -139 48 -269 127
-350 48 -49 45 -48 512 -181 835 -238 1453 -366 2070 -430 195 -20 674 -47
665 -38 -3 3 -61 11 -130 17 -667 59 -1358 169 -2059 329 -67 15 -75 39 -41
129 11 29 20 60 20 69 0 36 -35 -16 -60 -90 l-25 -72 -45 4 c-103 8 -160 53
-160 127 0 42 24 130 40 147 4 5 70 -10 146 -32 938 -270 2183 -411 3359 -381
550 15 1002 56 1425 130 63 11 127 20 141 20 41 0 61 -31 67 -105 7 -97 27
-66 27 43 l0 87 50 7 c28 4 78 11 113 14 l62 7 0 -69 c0 -38 4 -84 10 -102 9
-33 9 -34 -44 -58 -35 -16 -101 -31 -192 -44 -77 -11 -156 -25 -178 -31 -21
-6 -42 -7 -46 -2 -13 13 -40 114 -40 150 0 35 -14 44 -24 17 -9 -24 -7 -67 6
-123 6 -28 9 -53 7 -56 -3 -2 -48 -11 -99 -20 -52 -9 -105 -18 -117 -20 -21
-5 -23 -2 -23 42 -1 27 -7 73 -14 103 -13 54 -13 55 -26 28 -10 -22 -10 -38 5
-98 10 -39 15 -73 13 -75 -7 -7 -374 -43 -608 -60 -321 -22 -683 -35 -1085
-36 -332 -2 -353 -3 -275 -14 47 -7 183 -19 302 -26 217 -12 474 -6 853 21 72
5 200 14 285 20 372 26 689 75 1280 200 107 23 348 72 535 110 505 102 670
147 816 222 128 65 202 145 229 248 15 54 15 189 0 254 -15 68 0 83 51 48z
m-7714 -173 c41 -79 -37 -238 -84 -173 -18 25 -17 30 17 102 17 35 30 73 30
84 0 26 21 18 37 -13z m112 -58 l29 -28 -32 -97 c-25 -76 -35 -96 -50 -96 -17
0 -66 42 -66 58 0 4 13 41 29 82 16 41 32 83 35 93 8 24 21 21 55 -12z m144
-41 c23 0 27 -4 27 -28 0 -16 -11 -61 -25 -100 -14 -39 -25 -78 -25 -87 0 -8
-6 -15 -12 -15 -11 0 -105 29 -116 36 -2 1 16 48 39 104 37 90 45 101 63 96
12 -3 33 -6 49 -6z m7170 -37 c19 -36 33 -183 18 -183 -6 0 -18 12 -28 26 -21
33 -35 184 -16 184 7 0 19 -12 26 -27z m-6999 -20 l32 -15 -25 -99 -25 -99
-60 0 c-91 0 -93 4 -72 97 10 43 25 93 32 112 13 31 16 33 50 26 20 -3 50 -13
68 -22z m6888 10 c23 -27 38 -81 38 -138 0 -85 -40 -111 -83 -53 -25 33 -26
131 -2 177 18 36 26 38 47 14z m-6727 -52 c100 -30 99 -29 76 -83 -11 -26 -23
-67 -26 -92 -11 -73 -56 -83 -158 -38 l-45 20 8 44 c5 24 17 66 28 93 10 28
22 58 25 68 4 10 10 16 14 14 5 -3 40 -14 78 -26z m6611 -49 c18 -62 14 -136
-9 -159 -13 -13 -17 -13 -35 5 -44 44 -52 155 -16 210 21 32 40 15 60 -56z
m-158 5 c13 -13 27 -39 32 -58 12 -39 15 -133 5 -148 -3 -6 -25 -11 -49 -11
l-43 0 -11 78 c-16 99 -15 113 4 140 19 28 35 28 62 -1z m-130 -67 c7 -25 16
-73 21 -108 9 -76 2 -84 -71 -86 l-53 -1 -8 88 c-5 49 -6 99 -3 111 7 27 41
46 76 43 20 -2 27 -11 38 -47z m-152 -15 c-4 -14 0 -55 9 -91 26 -114 25 -116
-80 -143 -71 -19 -69 -22 -85 103 -14 108 -10 118 53 138 29 8 65 16 81 17 25
1 28 -2 22 -24z m-202 -81 c10 -31 20 -80 23 -110 l6 -54 -45 -19 c-24 -11
-63 -23 -87 -27 -63 -10 -71 5 -71 128 l0 97 58 16 c31 9 62 18 67 20 25 9 33
1 49 -51z m-269 -8 c42 -18 63 -58 71 -135 6 -55 5 -60 -17 -71 -36 -20 -120
-40 -165 -40 l-41 0 -6 86 c-7 120 -2 135 59 156 61 21 57 21 99 4z m-6655
-25 c16 -30 12 -64 -17 -177 -18 -69 -30 -101 -37 -94 -14 14 -11 96 8 165 8
33 16 75 18 93 3 36 12 41 28 13z m8260 -49 c15 -37 23 -82 24 -130 1 -66 -1
-76 -23 -93 -13 -10 -26 -19 -30 -19 -4 0 -7 24 -7 53 0 28 -3 86 -8 129 -9
78 -3 133 14 123 5 -3 18 -31 30 -63z m-8166 33 c17 -13 18 -24 13 -112 -7
-127 -28 -193 -70 -229 l-32 -27 -3 70 c-2 44 5 104 18 161 11 51 20 105 20
122 0 34 21 40 54 15z m8420 -18 c15 -11 16 -17 7 -35 -6 -11 -21 -28 -33 -36
-26 -18 -113 -22 -124 -5 -7 12 41 67 71 79 30 13 59 12 79 -3z m-8290 -157
c0 -98 -4 -124 -25 -174 -30 -74 -53 -90 -80 -57 -25 31 -24 74 6 199 14 57
25 115 25 128 0 23 3 25 38 22 l37 -3 -1 -115z m7929 76 c16 -31 21 -64 24
-165 l4 -126 -19 24 c-29 36 -40 82 -48 205 -5 87 -4 108 7 104 7 -2 22 -21
32 -42z m-7777 -7 c24 -6 44 -14 44 -18 0 -13 -39 -228 -49 -273 -24 -104 -51
-122 -110 -72 -27 23 -31 32 -31 78 0 29 9 95 20 147 11 52 20 106 20 122 0
23 4 27 31 27 16 0 50 -5 75 -11z m7675 -57 c18 -37 24 -68 27 -157 2 -60 0
-121 -5 -134 -9 -23 -10 -23 -26 12 -22 46 -34 115 -42 247 -6 93 -5 103 9 91
8 -7 25 -33 37 -59z m-7503 3 c47 -22 52 -27 52 -57 0 -19 -12 -79 -26 -133
-14 -55 -29 -120 -33 -145 -5 -39 -10 -45 -33 -48 -24 -3 -128 34 -128 45 0 2
11 53 25 111 13 59 27 134 30 167 4 33 8 66 11 73 5 19 44 14 102 -13z m7399
-56 c14 -76 35 -291 29 -297 -2 -2 -14 2 -26 8 -33 18 -49 69 -60 192 -5 62
-12 127 -16 144 -6 32 -6 32 27 25 33 -7 34 -9 46 -72z m487 54 c33 -67 31
-173 -3 -173 -23 0 -44 24 -68 80 -11 25 -27 51 -36 59 -23 18 -6 48 30 54 56
8 63 7 77 -20z m-640 -36 c34 -45 56 -135 56 -232 0 -82 -14 -155 -30 -155
-14 0 -50 84 -65 156 -22 102 -18 264 6 264 4 0 19 -15 33 -33z m-7009 -48
c65 -31 79 -34 197 -39 l126 -6 44 -40 c51 -47 94 -60 348 -104 96 -17 245
-46 330 -65 434 -95 809 -152 1313 -200 236 -22 301 -25 657 -22 288 1 408 -1
442 -10 38 -11 52 -10 82 2 58 24 166 29 389 15 249 -15 318 -10 903 70 300
41 604 79 637 80 4 0 7 -33 7 -72 0 -64 20 -220 37 -285 4 -20 1 -23 -23 -23
-16 0 -67 -7 -112 -15 -113 -20 -129 -15 -129 38 -1 24 -8 58 -16 77 l-15 35
-12 -30 c-11 -28 -9 -82 4 -115 6 -13 -28 -21 -221 -48 -425 -60 -754 -93
-1128 -113 -244 -13 -923 -6 -1140 11 -230 18 -423 59 -550 115 l-55 24 0 55
0 56 -69 0 c-37 0 -122 9 -187 21 -66 12 -159 22 -207 23 -81 1 -90 -1 -107
-22 -10 -12 -21 -40 -25 -61 -13 -81 6 -80 -346 -11 -563 110 -910 189 -937
214 -15 15 -19 60 -9 99 7 24 5 28 -10 25 -14 -2 -19 -15 -21 -56 -2 -32 -8
-52 -15 -52 -7 0 -51 10 -99 22 l-88 23 0 33 c0 18 12 78 26 133 14 54 24 114
22 131 -3 30 -6 26 -26 -37 -13 -38 -28 -107 -34 -152 l-12 -83 -40 1 c-23 0
-66 8 -96 17 -42 14 -56 23 -58 40 -2 12 11 71 28 132 17 61 31 129 32 153 0
23 3 46 5 51 10 16 88 -1 158 -35z m6908 -48 c4 -49 14 -133 22 -186 9 -54 14
-104 11 -111 -3 -8 -18 -14 -34 -14 -15 0 -33 -5 -40 -12 -9 -9 -15 -4 -26 23
-49 118 -66 292 -33 343 18 27 47 44 78 45 13 1 17 -15 22 -88z m-160 -38 c2
-32 10 -101 18 -154 12 -89 11 -98 -7 -134 -12 -25 -29 -42 -47 -48 -16 -5
-30 -7 -32 -5 -11 11 -35 203 -35 280 0 113 2 118 55 118 l43 0 5 -57z m-163
10 c0 -5 7 -57 15 -118 19 -140 19 -199 0 -235 -18 -34 -58 -48 -81 -29 -30
25 -38 56 -44 194 -4 77 -10 147 -14 156 -5 13 0 20 21 27 33 12 103 15 103 5z
m-198 -44 c31 -17 46 -68 53 -180 3 -57 8 -120 10 -140 4 -33 2 -36 -40 -57
-25 -12 -61 -22 -79 -22 -42 0 -44 7 -52 229 -6 134 -4 165 7 172 19 12 76 11
101 -2z m-171 -73 c5 -16 13 -96 19 -179 5 -83 13 -153 16 -156 7 -7 -114 -41
-147 -41 -16 0 -30 7 -34 18 -4 9 -11 76 -15 148 -5 72 -12 147 -15 166 l-7
35 64 21 c82 28 109 25 119 -12z m-227 -33 c16 -53 29 -171 30 -262 l1 -104
-50 -14 c-27 -7 -69 -13 -93 -13 -37 0 -44 3 -53 28 -6 15 -15 77 -20 137 -5
61 -11 127 -14 148 l-5 38 62 29 c72 34 134 40 142 13z m1454 5 c27 -27 0
-103 -47 -131 -31 -18 -91 -23 -91 -8 0 5 23 31 50 57 28 27 53 59 56 71 7 26
15 28 32 11z m-1708 -85 c0 -16 11 -82 25 -148 14 -66 25 -134 25 -152 0 -36
-3 -37 -99 -52 -35 -6 -74 -17 -87 -25 -21 -15 -24 -14 -43 10 -11 14 -25 49
-30 77 -9 43 -25 209 -26 267 0 19 109 48 183 49 50 1 52 0 52 -26z m-6088
-147 c10 -10 17 -81 27 -277 13 -291 32 -498 57 -650 12 -70 14 -103 6 -111
-17 -17 -31 0 -47 55 -23 81 -33 210 -40 492 -5 241 -19 446 -31 488 -6 20 9
22 28 3z m91 -76 c17 -37 23 -93 38 -365 10 -176 20 -349 21 -385 l3 -65 12
40 c18 58 16 196 -7 401 -19 174 -26 376 -14 408 5 14 9 13 24 -7 49 -62 54
-85 59 -269 4 -97 9 -179 13 -183 4 -4 12 12 19 35 10 33 10 67 1 164 -22 226
-17 254 46 222 45 -23 56 -61 48 -170 -5 -65 -2 -131 9 -217 9 -67 13 -134 10
-148 -5 -19 -3 -23 5 -15 20 19 23 144 6 269 -9 65 -16 154 -16 197 0 88 6 93
76 63 43 -18 60 -56 80 -175 17 -108 23 -127 36 -108 5 7 6 60 3 118 -3 58 -2
111 3 118 7 10 25 8 88 -12 118 -37 334 -90 559 -136 235 -47 529 -111 533
-116 2 -1 -1 -19 -8 -39 -11 -33 -9 -42 20 -101 37 -76 49 -82 159 -89 42 -3
104 -7 139 -10 l63 -4 20 45 c13 28 24 42 32 37 6 -4 24 -6 40 -5 49 4 102
-16 174 -66 l68 -47 90 4 c120 5 215 5 240 0 18 -4 20 3 25 71 l5 75 190 -5
c105 -3 471 -5 815 -4 486 0 674 4 845 17 241 19 529 50 670 72 80 13 92 13
114 -1 22 -15 23 -20 16 -68 -14 -90 -12 -151 5 -151 12 0 16 20 18 107 2 68
7 109 15 116 24 19 112 42 160 42 51 0 87 -19 87 -47 0 -7 5 -13 10 -13 6 0
10 6 10 13 0 27 50 60 127 82 70 20 79 21 85 6 4 -9 7 -88 7 -176 1 -155 -5
-224 -49 -653 -23 -224 -24 -307 -2 -212 36 155 52 295 77 670 17 250 31 380
43 392 5 5 150 38 170 38 8 0 -1 -220 -18 -410 -11 -124 -23 -296 -27 -384 -7
-185 -3 -176 -139 -282 -140 -109 -162 -187 -184 -634 -6 -118 -28 -460 -50
-760 -100 -1393 -141 -1953 -149 -2045 l-8 -100 -2 105 c-2 201 27 798 74
1505 14 204 38 588 55 855 20 309 38 523 50 590 30 166 28 205 -22 297 -22 43
-52 98 -65 122 -12 25 -23 53 -23 63 0 10 -4 18 -10 18 -5 0 -10 -4 -10 -8 0
-17 -66 -43 -155 -61 -49 -10 -99 -22 -109 -26 -18 -8 -19 -5 -12 36 12 74 12
84 -4 84 -18 0 -27 -85 -12 -111 7 -12 -1 -27 -32 -59 -79 -81 -132 -212 -161
-395 -9 -58 -19 -242 -25 -470 -14 -493 -40 -1045 -100 -2105 -27 -478 -56
-1014 -64 -1190 -23 -472 -27 -525 -38 -495 -19 50 -20 188 -4 355 9 94 36
647 61 1230 84 1976 95 2220 104 2325 37 398 16 546 -90 652 l-48 48 -88 0
c-48 0 -110 -6 -138 -14 -124 -33 -226 -112 -273 -214 l-27 -57 -1 -270 c-1
-148 -6 -400 -12 -560 -20 -510 -22 -574 -47 -1535 -43 -1614 -63 -2262 -85
-2680 -6 -102 -10 -286 -10 -410 0 -128 -4 -231 -10 -240 -13 -20 -13 503 0
965 5 193 14 586 20 875 31 1608 52 2346 86 3015 36 706 -8 952 -187 1050 -75
40 -197 47 -280 16 -146 -55 -226 -195 -265 -463 -14 -100 -16 -229 -12 -1138
6 -1864 1 -3232 -16 -3950 -8 -382 -18 -1023 -21 -1424 -5 -656 -7 -732 -22
-748 -9 -10 -21 -18 -26 -18 -7 0 -8 82 -3 243 5 133 12 1552 16 3152 5 1601
14 3036 19 3190 11 286 2 639 -19 774 -29 186 -100 306 -216 364 -81 41 -240
40 -323 -3 -87 -45 -149 -145 -177 -287 -14 -68 -15 -167 -9 -768 3 -379 10
-1351 15 -2160 5 -808 12 -1569 15 -1690 5 -212 5 -219 -12 -185 -12 26 -16
58 -15 120 5 318 1 751 -17 1540 -11 498 -25 1182 -31 1520 -21 1279 -33 1559
-70 1706 -61 239 -200 338 -412 293 -157 -33 -216 -121 -225 -334 -3 -61 2
-299 11 -530 9 -231 18 -487 21 -570 3 -82 17 -676 30 -1320 24 -1107 36
-1576 51 -1867 5 -92 3 -128 -5 -128 -7 0 -11 20 -11 51 0 32 -5 56 -14 63
-15 12 -24 256 -51 1411 -22 945 -39 1374 -75 1905 -11 157 -22 439 -25 627
-7 442 -25 561 -99 687 -69 114 -235 167 -347 110 -37 -18 -88 -79 -110 -130
-24 -57 -49 -180 -49 -244 0 -32 -4 -49 -10 -45 -5 3 -10 32 -10 63 -1 83 -25
204 -53 264 -67 146 -198 258 -302 257 -46 0 -75 -12 -133 -54 -41 -29 -50
-47 -67 -127 -4 -19 -12 -28 -25 -28 -17 0 -20 7 -20 43 0 100 -55 201 -151
277 -64 50 -103 52 -182 10 -31 -16 -58 -26 -61 -22 -2 4 -7 63 -11 132 -13
254 -43 455 -44 300 -1 -62 13 -281 24 -400 l6 -55 -26 30 c-73 85 -95 175
-102 428 -4 145 -9 195 -17 187 -10 -10 -11 -169 -3 -405 2 -55 0 -60 -20 -63
-27 -4 -49 28 -58 85 -8 49 -17 59 -35 38 -9 -11 -9 -22 0 -50 7 -20 10 -39 7
-41 -9 -10 -47 48 -51 80 -7 48 -35 379 -51 601 -9 110 -18 227 -22 260 -6 57
-5 59 12 45 10 -8 27 -35 38 -60z m7091 -56 c0 -16 -6 -60 -13 -99 -7 -38 -16
-178 -21 -310 -11 -272 -30 -420 -60 -449 -11 -11 -22 -17 -25 -14 -4 3 1 79
9 169 9 90 23 243 31 339 18 205 52 403 69 397 6 -2 11 -17 10 -33z m-111 -34
c-1 -14 -7 -110 -13 -215 -23 -418 -39 -536 -82 -605 -29 -48 -32 -27 -14 93
22 147 43 354 57 570 12 181 14 188 33 185 16 -2 20 -10 19 -28z m-102 -11
c-2 -8 -10 -113 -17 -234 -24 -410 -44 -596 -82 -755 l-17 -75 -3 143 c-3 160
12 333 59 695 28 209 35 247 48 244 9 -2 14 -10 12 -18z m-105 -46 c-3 -27
-15 -187 -26 -358 -22 -337 -42 -518 -62 -544 -17 -22 -40 -41 -51 -41 -20 0
27 608 68 881 8 55 15 101 15 104 0 3 14 5 31 5 l32 0 -7 -47z m-126 8 c0 -4
-5 -33 -11 -62 -5 -30 -14 -196 -19 -369 -11 -372 -28 -478 -89 -539 -19 -19
-68 -31 -58 -13 5 7 13 87 57 577 11 121 26 258 35 305 8 47 15 91 15 98 0 7
14 12 35 12 19 0 35 -4 35 -9z m-4685 -51 c180 0 235 -28 243 -124 2 -31 3
-56 1 -56 -61 7 -378 67 -378 73 -1 4 -1 34 -1 66 l0 60 32 -10 c18 -5 64 -9
103 -9z m4531 -5 c18 -28 19 -9 -15 -410 -40 -477 -49 -537 -98 -695 -51 -166
-66 -308 -108 -1085 -23 -429 -51 -827 -60 -850 -2 -5 -4 58 -4 140 -1 275 25
754 84 1530 46 594 73 986 81 1170 6 138 8 153 31 188 31 45 64 49 89 12z
m-136 -23 c0 -4 -9 -84 -19 -177 -19 -169 -31 -312 -55 -668 -7 -103 -15 -189
-18 -192 -4 -5 -133 46 -144 57 -3 4 -1 68 5 145 6 76 15 228 21 338 13 236
34 428 55 493 5 13 155 18 155 4z m-6438 -716 l26 -23 31 -374 c28 -330 80
-929 141 -1614 37 -418 60 -676 80 -902 178 -1987 280 -3273 315 -3963 3 -63
8 -142 11 -175 15 -155 -36 57 -60 250 -8 66 -22 215 -31 330 -9 116 -70 842
-135 1615 -66 773 -144 1707 -175 2075 -30 369 -78 942 -105 1275 -50 595
-124 1419 -136 1493 -7 43 1 45 38 13z m271 -124 c68 -64 94 -164 107 -415 15
-281 51 -736 150 -1877 47 -540 112 -1396 215 -2810 42 -569 98 -1316 125
-1659 28 -344 49 -629 47 -635 -2 -6 -31 17 -65 50 -60 59 -62 61 -62 113 0
32 -4 50 -10 46 -5 -3 -10 -25 -10 -47 0 -40 0 -41 -20 -23 -24 22 -26 66 -4
126 21 58 19 129 -6 214 -22 78 -25 126 -9 142 8 8 5 19 -11 40 -35 48 -43
101 -21 146 19 37 19 38 -10 145 -36 130 -59 267 -59 344 0 45 4 60 20 71 17
11 18 18 10 49 -6 19 -14 130 -19 246 -7 180 -11 217 -29 252 -18 37 -19 51
-12 178 5 75 6 140 3 145 -2 4 -11 7 -20 7 -13 0 -14 7 -8 43 16 82 12 120
-13 133 l-23 11 26 17 c36 24 31 62 -7 58 -37 -4 -51 23 -36 74 6 21 18 47 26
56 20 24 26 208 6 208 -9 0 -14 -19 -16 -62 l-3 -63 -18 37 c-9 21 -17 58 -17
84 0 41 2 46 20 41 19 -5 20 -2 14 111 -7 155 -21 246 -42 291 -15 31 -16 39
-5 49 7 8 13 34 13 64 0 41 -5 55 -24 73 -15 14 -28 41 -34 76 -11 56 -31 321
-26 328 2 2 10 -2 19 -9 13 -11 15 1 15 103 0 102 -2 116 -16 110 -13 -5 -15
-17 -10 -67 l6 -61 -16 35 c-20 43 -20 119 -1 182 14 45 14 48 -14 104 -36 70
-36 127 -2 239 5 17 4 18 -9 8 -8 -7 -18 -10 -21 -6 -11 11 -7 202 7 291 12
85 4 114 -12 40 l-9 -43 -8 30 c-5 17 -3 58 3 97 18 102 17 109 -15 106 -25
-3 -28 1 -35 37 -4 22 -7 85 -8 140 -1 92 -18 226 -35 267 -10 25 24 37 37 14
18 -32 28 -4 28 75 0 72 -9 96 -25 69 -3 -5 -15 -10 -26 -10 -15 0 -19 7 -19
31 0 26 3 30 18 24 49 -21 55 -19 48 11 -16 83 -27 157 -24 172 1 9 -2 17 -7
17 -6 0 -9 -21 -9 -47 2 -54 -6 -60 -30 -23 -21 32 -20 60 3 128 26 76 36 143
22 151 -7 5 -14 -5 -18 -25 l-6 -32 -18 34 c-24 45 -24 113 1 201 21 77 26
158 10 158 -5 0 -10 -26 -10 -57 -1 -58 -1 -58 -19 -36 -37 44 -34 164 4 149
13 -5 15 13 15 114 0 66 -4 120 -9 120 -15 0 -20 -40 -15 -109 4 -54 3 -62 -7
-47 -50 79 -59 306 -23 556 6 41 6 44 -9 31 -15 -11 -17 -11 -17 1 0 8 7 23
15 34 8 10 15 27 15 37 0 16 -2 16 -23 2 -52 -34 -50 24 4 96 36 48 40 59 36
97 l-5 43 27 -17 c14 -9 38 -28 54 -42z m6767 -215 c-7 -76 -10 -173 -6 -216
6 -71 5 -79 -11 -77 -12 1 -19 -7 -21 -24 -2 -14 -7 -34 -12 -45 -4 -11 -16
-98 -25 -194 -17 -168 -15 -270 5 -340 6 -22 3 -44 -15 -88 -51 -126 -74 -373
-85 -908 -11 -502 -22 -582 -98 -715 -16 -29 -21 -61 -26 -175 -3 -77 -20
-286 -37 -465 -17 -179 -32 -394 -33 -477 -1 -135 -3 -152 -17 -148 -13 5 -17
-6 -23 -62 -10 -109 -53 -635 -76 -928 -34 -435 -78 -857 -109 -1050 -49 -305
-55 -366 -45 -504 18 -259 9 -339 -40 -380 -12 -10 -15 -34 -15 -105 0 -50 -5
-105 -11 -121 -16 -43 -50 -75 -77 -75 -23 0 -24 3 -19 43 4 23 22 213 41 422
43 471 185 2009 225 2440 63 675 181 1992 225 2500 25 292 54 631 66 755 11
124 24 340 30 480 17 437 51 572 173 694 l41 41 4 -70 c1 -38 -3 -132 -9 -208z
m125 -119 c-121 -1461 -304 -3352 -510 -5263 -62 -579 -125 -1177 -125 -1193
0 -8 -2 -13 -5 -10 -18 18 181 2272 325 3668 16 157 61 598 100 980 39 382
100 954 136 1270 35 316 72 644 81 729 10 84 19 149 21 143 2 -6 -9 -151 -23
-324z m-6503 244 c77 -51 129 -167 148 -331 5 -47 14 -214 20 -371 19 -561 59
-1238 205 -3455 43 -662 70 -1104 90 -1490 26 -513 44 -795 80 -1230 47 -575
53 -659 48 -668 -10 -17 -48 -4 -99 35 l-54 43 0 107 c0 65 -4 108 -10 108 -6
0 -10 -27 -10 -62 0 -34 -2 -59 -4 -57 -3 2 -10 53 -16 111 -9 80 -9 121 -1
160 10 43 9 53 -2 60 -8 4 -22 18 -30 32 -15 22 -15 27 5 67 23 49 28 173 9
268 -6 29 -11 80 -11 112 0 51 -4 61 -30 87 -36 36 -40 83 -11 109 18 15 18
18 4 40 -14 21 -14 27 1 66 17 46 23 138 7 122 -5 -6 -11 -28 -13 -50 -3 -38
-4 -39 -16 -18 -7 12 -15 43 -19 68 -5 38 -2 51 16 75 15 21 21 44 21 83 0 56
-12 77 -43 77 -18 0 -17 2 4 18 26 22 21 51 -11 59 -25 7 -25 14 -1 44 41 53
38 116 -4 105 -13 -3 -26 -2 -29 3 -4 5 3 47 14 93 34 141 24 377 -21 477 -17
39 -22 79 -30 271 -5 124 -18 367 -29 540 -27 413 -49 795 -50 845 -1 34 -3
37 -10 18 -10 -26 -20 -29 -38 -11 -19 19 -14 63 9 93 20 25 21 35 16 118 -4
51 -16 164 -27 252 -11 88 -20 201 -20 252 0 81 -2 92 -19 98 -17 5 -19 24
-24 288 -4 176 -15 389 -32 567 -34 381 -55 675 -55 788 l0 93 -36 35 c-29 30
-34 41 -29 63 38 148 28 367 -24 561 -25 92 -25 90 -1 90 30 0 57 37 65 88 12
86 15 93 39 86 11 -4 38 -18 58 -32z m6038 -32 c0 -14 -9 -54 -20 -88 -21 -67
-27 -172 -10 -172 10 0 15 19 25 93 15 116 14 18 -5 -296 -66 -1131 -147
-2135 -320 -3962 -91 -965 -96 -1023 -125 -1485 -53 -851 -103 -1471 -120
-1489 -2 -2 -12 -1 -21 3 -19 7 -18 12 10 261 19 168 36 405 35 492 l-1 68
-20 -60 c-17 -50 -21 -101 -28 -320 -11 -318 -22 -383 -81 -466 -20 -29 -76
-65 -86 -56 -14 15 94 1449 297 3932 125 1534 190 2411 220 2975 20 380 54
490 179 581 58 42 71 40 71 -11z m-5572 -109 c20 -11 57 -33 80 -51 36 -26 43
-36 38 -55 -5 -18 2 -33 23 -57 l29 -33 -20 -25 c-33 -41 -6 -130 45 -149 20
-8 22 -15 22 -92 0 -75 -2 -84 -21 -94 -17 -9 -20 -15 -12 -35 41 -112 56
-369 29 -527 -16 -97 -16 -98 7 -98 10 0 18 -9 20 -24 3 -20 0 -23 -17 -18
-19 4 -21 1 -20 -31 0 -21 6 -62 12 -92 12 -53 23 -66 72 -83 17 -6 -16 -37
-40 -37 -22 0 -23 -4 -30 -129 -7 -142 -4 -166 25 -174 25 -6 25 -25 4 -173
-10 -67 -14 -131 -10 -158 8 -49 43 -101 76 -111 29 -9 24 -43 -9 -73 l-30
-25 20 -26 c19 -23 20 -38 17 -162 -3 -131 -2 -139 21 -169 23 -32 23 -33 7
-81 -8 -27 -13 -56 -10 -64 5 -12 1 -12 -25 -2 -17 6 -32 9 -35 6 -3 -2 -1
-22 4 -44 5 -22 14 -112 20 -199 14 -195 23 -247 55 -310 19 -36 23 -52 15
-60 -8 -8 -15 -6 -25 7 -12 17 -14 14 -21 -28 -8 -58 0 -145 26 -261 23 -107
25 -213 5 -280 -8 -27 -15 -50 -15 -50 0 -1 10 -4 21 -7 19 -5 21 -11 15 -49
-3 -24 -9 -77 -12 -118 -5 -67 -4 -73 9 -57 14 17 16 14 27 -35 6 -29 14 -125
16 -213 2 -88 6 -213 8 -278 3 -98 1 -115 -10 -106 -12 10 -14 -9 -14 -112 0
-134 12 -235 34 -299 14 -40 10 -50 -12 -28 -7 7 -12 8 -13 3 -4 -43 5 -127
23 -219 18 -92 19 -116 10 -153 -17 -61 -15 -81 8 -88 11 -3 20 -11 20 -16 0
-5 -9 -9 -20 -9 -17 0 -20 -7 -20 -48 0 -27 7 -95 16 -153 10 -65 14 -140 11
-199 -3 -69 -2 -89 6 -72 13 28 27 29 27 2 0 -12 7 -34 15 -51 14 -27 14 -30
-1 -36 -9 -3 -20 0 -25 8 -6 9 -8 -92 -7 -257 2 -150 6 -270 11 -267 4 2 7 15
7 29 0 29 11 31 36 3 23 -26 22 -75 -6 -153 -26 -77 -26 -122 0 -138 28 -18
27 -78 0 -103 -18 -16 -19 -20 -6 -27 16 -9 29 -50 41 -125 l7 -42 -36 6 c-35
6 -36 5 -35 -28 2 -53 14 -84 32 -83 9 1 17 -2 17 -7 0 -22 -48 -5 -134 46
-50 30 -101 55 -113 55 -20 0 -21 5 -27 248 -8 301 -25 658 -34 732 -5 42 -12
57 -29 66 -25 12 -20 24 10 24 20 0 20 5 13 208 -8 274 -17 347 -47 378 -21
23 -22 26 -9 80 14 57 12 64 -25 77 -5 2 3 20 18 40 30 39 28 62 -5 54 -16 -5
-17 -3 -7 11 34 45 64 72 81 72 15 0 17 3 8 19 -5 11 -10 41 -10 66 0 33 -4
45 -12 42 -9 -3 -12 -21 -11 -51 2 -35 -1 -46 -12 -46 -27 0 -35 38 -35 166 0
104 -3 131 -16 146 -11 12 -14 22 -7 30 5 7 15 32 22 55 8 30 16 41 26 37 12
-5 15 4 15 45 0 59 -6 65 -18 19 l-8 -33 -18 27 c-20 30 -35 129 -36 228 0 43
-5 73 -16 88 -12 17 -14 35 -8 78 5 44 3 58 -11 73 -14 16 -14 20 -2 28 54 32
47 198 -10 243 -24 19 -24 19 -7 52 29 53 30 204 4 403 -12 94 -23 226 -25
295 -2 116 -4 125 -24 134 -12 5 -20 15 -17 21 2 6 10 94 17 196 14 208 4 336
-34 450 l-22 64 23 22 c16 16 22 34 22 65 0 57 -9 88 -26 88 -11 0 -12 28 -7
150 4 103 3 157 -5 173 -6 12 -13 81 -14 154 -3 118 -5 134 -25 162 -30 39
-29 59 2 71 26 10 35 40 11 40 -22 0 -25 22 -16 96 16 121 13 188 -11 217
l-20 26 22 31 c13 16 31 30 41 30 16 0 18 11 18 114 0 84 -4 116 -14 125 -21
17 -26 -6 -14 -68 5 -29 8 -69 6 -89 l-3 -37 -20 30 c-18 26 -20 46 -20 190
l0 160 30 0 c22 0 29 4 25 15 -2 8 -6 59 -8 113 -3 91 -12 118 -26 81 -4 -9
-3 -45 0 -80 7 -61 6 -64 -20 -75 -37 -17 -54 0 -38 36 10 21 9 25 -4 25 -12
0 -14 5 -9 18 5 9 14 51 21 92 7 41 13 76 13 78 1 1 10 2 21 2 19 0 20 7 20
206 0 121 -4 203 -9 200 -12 -8 -19 -55 -30 -191 -8 -93 -7 -112 6 -122 13
-10 11 -14 -11 -28 -14 -10 -26 -24 -26 -32 0 -29 -29 7 -36 45 -6 30 5 121
22 183 3 9 -3 25 -13 34 -16 17 -16 20 5 56 13 22 22 55 22 79 l0 41 43 -2
c58 -3 67 4 67 57 0 41 -6 49 -32 45 -5 0 -8 4 -8 9 0 16 27 12 68 -9z m5135
-8 c3 -16 15 -56 27 -90 24 -66 22 -100 -7 -129 -14 -13 -17 -31 -15 -78 2
-34 -4 -110 -12 -170 -23 -156 -21 -253 4 -294 l21 -33 -25 -29 c-43 -51 -42
-87 2 -172 2 -5 -3 -8 -12 -8 -61 0 -77 -313 -19 -355 16 -12 15 -16 -11 -49
-29 -38 -27 -56 5 -56 21 0 23 -8 10 -29 -6 -9 -18 -11 -35 -7 -25 6 -26 4
-26 -33 0 -46 15 -90 35 -105 12 -9 13 -22 5 -74 -6 -35 -11 -119 -12 -187 -2
-93 -6 -125 -15 -125 -7 0 -20 -12 -30 -27 -14 -22 -18 -52 -18 -177 -1 -91
-8 -190 -18 -251 -20 -117 -35 -301 -26 -316 3 -6 10 -9 14 -7 16 6 27 -66 22
-137 -2 -38 -19 -119 -36 -179 -32 -112 -39 -194 -21 -241 9 -23 7 -30 -12
-45 -20 -16 -23 -27 -22 -82 0 -34 6 -86 13 -115 11 -44 10 -55 -3 -82 -12
-21 -16 -59 -16 -130 0 -74 -5 -110 -17 -136 -15 -31 -15 -43 -5 -93 7 -32 12
-84 12 -115 0 -54 -1 -57 -25 -57 -24 0 -25 -3 -25 -57 0 -32 7 -107 16 -166
l17 -108 -27 -28 c-20 -21 -30 -45 -38 -97 -13 -83 -5 -218 16 -268 10 -24 11
-38 4 -42 -20 -12 -36 -70 -47 -164 -10 -78 -9 -117 4 -213 29 -226 15 -368
-45 -454 -21 -31 -25 -43 -15 -43 30 0 50 -60 49 -150 -2 -129 -38 -192 -46
-80 l-3 45 -14 -45 c-11 -36 -12 -63 -3 -130 6 -47 14 -93 17 -103 7 -15 4
-17 -19 -11 -23 5 -26 3 -26 -19 0 -14 11 -39 25 -55 31 -37 32 -55 4 -74 -21
-13 -21 -16 -8 -69 17 -69 18 -352 0 -431 -11 -52 -14 -57 -31 -48 -10 6 -20
10 -23 10 -2 0 3 -32 11 -70 11 -55 12 -108 5 -247 l-8 -177 -103 -27 c-56
-15 -119 -29 -140 -31 l-37 -3 3 68 c2 38 -3 93 -12 128 -20 78 -20 82 4 76
19 -5 20 0 20 111 0 65 12 214 26 332 28 232 34 426 15 503 -10 43 -9 50 9 75
30 40 45 128 31 180 -7 23 -17 42 -23 42 -6 0 -5 7 4 18 38 42 49 189 25 329
-10 57 -11 70 -1 62 21 -17 34 24 34 109 0 43 -5 103 -10 134 -9 49 -8 60 9
90 28 46 41 146 41 316 0 134 -1 142 -19 142 -27 0 -31 9 -24 59 4 30 9 39 16
32 6 -6 21 -11 33 -11 22 0 23 4 22 78 -1 42 1 88 3 102 3 21 0 25 -20 25 -14
0 -26 6 -29 13 -7 21 20 44 46 39 l25 -5 -6 172 c-3 94 -9 182 -13 195 -6 21
-5 22 13 13 19 -10 19 -4 31 216 16 300 16 326 -3 318 -23 -9 -28 34 -11 100
8 33 13 69 10 82 -4 13 -2 22 5 22 7 0 11 -28 12 -77 1 -67 2 -74 11 -48 19
55 14 213 -10 302 -12 45 -22 85 -22 88 0 13 31 3 37 -11 6 -15 8 -15 20 2 17
23 16 95 -2 164 -22 82 -20 110 8 110 22 0 23 2 26 145 2 143 2 145 -22 167
-23 21 -24 27 -16 76 4 28 11 56 14 62 15 25 25 5 25 -52 0 -80 9 -69 21 25 7
55 5 112 -6 212 -8 75 -15 179 -15 231 0 93 0 94 25 94 37 0 47 30 43 133 -2
51 1 102 5 115 7 18 5 22 -12 22 -28 0 -33 28 -21 106 6 38 9 78 6 91 -4 12
-2 24 4 28 15 9 23 -42 16 -108 -4 -45 -3 -58 5 -50 24 24 22 134 -5 238 -29
112 -31 132 -14 187 17 58 33 41 33 -35 0 -37 3 -67 7 -67 14 0 20 72 14 148
-17 216 -18 249 -7 256 7 5 11 -7 11 -40 0 -102 9 -29 19 161 24 419 47 529
135 648 20 27 129 107 146 107 4 0 10 -12 13 -27z m-536 -191 l22 -26 -25 -47
c-24 -48 -33 -129 -15 -129 5 0 11 6 13 12 6 18 28 -183 23 -207 -2 -11 -7
-37 -10 -58 -5 -33 -8 -37 -22 -26 -15 13 -15 78 2 124 6 17 4 16 -15 -4 -19
-23 -21 -34 -19 -170 1 -103 -2 -154 -11 -174 -17 -34 -7 -44 25 -27 14 7 28
10 32 7 3 -4 -15 -48 -40 -99 -50 -101 -66 -183 -53 -272 10 -67 26 -46 26 35
0 54 4 71 15 76 9 3 18 3 21 1 8 -9 9 -222 0 -246 -10 -28 -28 -24 -37 9 -5
16 -7 7 -8 -31 0 -30 6 -80 14 -110 19 -71 19 -160 1 -186 -12 -16 -15 -16
-19 -4 -3 8 -8 22 -11 30 -3 8 -3 -123 0 -291 7 -329 1 -382 -46 -442 -20 -26
-20 -27 -3 -59 13 -24 18 -56 18 -115 0 -45 -4 -85 -8 -89 -11 -11 -26 15 -28
46 l-1 25 -8 -25 c-16 -49 -11 -149 11 -213 16 -47 19 -74 14 -112 -10 -80
-16 -95 -36 -95 -10 0 -19 -1 -19 -2 0 -2 7 -39 15 -83 8 -45 14 -144 15 -224
0 -171 -27 -406 -45 -391 -9 8 -14 -17 -19 -101 -6 -99 -5 -114 13 -153 28
-57 27 -64 -11 -68 -30 -3 -33 -6 -30 -33 1 -16 4 -100 7 -185 2 -86 9 -168
14 -183 16 -41 14 -47 -15 -47 -19 0 -28 -8 -40 -36 -20 -49 -15 -68 20 -72
l29 -4 -7 -111 c-3 -62 -18 -227 -32 -367 -14 -140 -29 -358 -32 -485 l-7
-230 -28 2 c-23 2 -28 -1 -22 -15 3 -9 10 -73 15 -142 5 -69 12 -136 16 -149
6 -21 5 -22 -14 -12 -11 6 -28 11 -37 11 -15 0 -17 -12 -13 -111 3 -100 6
-113 26 -129 17 -15 22 -29 22 -69 l0 -51 -35 0 c-42 0 -42 6 -15 -185 21
-146 27 -266 16 -303 -15 -47 -35 -12 -36 63 -1 34 -2 37 -11 21 -11 -17 -9
-49 7 -163 3 -23 2 -49 -4 -59 -7 -12 -4 -22 9 -35 26 -26 24 -75 -10 -204
-34 -128 -45 -197 -36 -225 12 -37 25 -20 25 32 0 42 2 49 13 39 15 -15 14
-109 -2 -139 -11 -20 -20 -22 -101 -22 l-90 0 0 178 c-1 141 -3 173 -12 157
-8 -14 -11 -66 -9 -163 3 -164 -6 -192 -59 -192 -17 0 -30 5 -30 13 0 6 9 172
20 367 11 195 29 551 40 790 35 747 70 1438 80 1605 24 380 31 483 36 532 5
52 5 53 -30 74 -32 18 -36 26 -36 60 0 49 17 51 26 4 17 -95 38 -16 54 209 11
156 10 159 -32 180 -18 9 -24 21 -26 54 -4 49 13 57 22 11 7 -37 27 -34 37 7
4 16 12 90 18 164 10 133 9 135 -12 152 -12 10 -28 23 -34 28 -16 13 -17 80
-3 80 11 0 14 -7 25 -54 3 -15 8 -26 11 -23 9 8 52 463 55 572 4 162 0 265
-11 265 -5 0 -10 -9 -10 -19 0 -11 -4 -22 -9 -25 -12 -8 -25 167 -17 240 3 33
13 137 22 232 10 94 21 172 25 172 18 0 20 -52 4 -118 -14 -56 -15 -74 -5 -92
8 -15 15 -19 22 -12 12 12 40 334 30 343 -4 4 -18 9 -32 11 -31 4 -33 32 -2
36 39 6 47 37 48 187 1 77 4 154 5 170 4 27 2 30 -23 27 -25 -2 -28 0 -28 28
0 34 6 37 30 15 16 -15 18 -10 30 62 7 43 16 240 20 438 7 267 13 378 24 429
31 132 81 219 157 268 27 17 46 35 43 39 -9 15 -40 10 -68 -12 -14 -11 -34
-19 -43 -17 -22 4 10 28 113 87 l69 39 35 -30 c19 -16 45 -41 57 -56z m-3881
6 c6 -20 24 -42 44 -56 19 -13 33 -29 32 -35 -2 -7 -1 -101 3 -209 8 -209 25
-263 25 -78 0 99 2 110 20 120 16 9 22 8 27 -6 7 -20 -4 -327 -18 -478 -9
-106 -9 -110 13 -133 22 -24 23 -32 23 -179 0 -85 -3 -154 -7 -154 -5 0 -8 11
-8 24 0 30 -15 42 -24 20 -3 -9 -6 -41 -6 -71 0 -55 0 -56 19 -39 31 28 44 11
38 -51 -7 -65 -12 -73 -31 -47 -14 18 -15 18 -26 -11 -8 -22 -8 -51 1 -117 15
-101 33 -99 23 2 l-6 65 23 -23 c23 -22 24 -29 26 -185 1 -128 -1 -156 -10
-134 -29 71 -39 0 -35 -240 2 -152 5 -179 17 -170 10 9 12 29 8 84 -3 40 -2
73 2 73 12 0 31 -64 41 -145 11 -88 2 -427 -12 -419 -4 3 -8 22 -8 42 0 25 -3
33 -10 26 -12 -12 -16 -80 -12 -187 3 -83 22 -82 23 1 l1 57 13 -42 c24 -75
27 -163 10 -313 -24 -227 -35 -401 -28 -454 13 -99 25 -7 24 177 -1 100 3 176
7 173 5 -3 17 -33 26 -66 23 -82 22 -240 -3 -411 -11 -75 -23 -180 -27 -235
-6 -84 -4 -97 7 -86 10 10 13 38 12 108 -2 73 0 95 10 92 31 -11 41 -100 38
-351 -1 -98 -4 -128 -13 -124 -8 2 -13 20 -13 43 0 28 -4 39 -15 39 -12 0 -15
-12 -14 -50 4 -114 9 -185 15 -185 3 0 12 11 19 25 17 32 28 32 41 -2 14 -38
1 -339 -14 -324 -22 22 -27 10 -27 -60 0 -62 2 -70 15 -59 21 17 20 1 -5 -102
-20 -85 -27 -218 -11 -218 11 0 21 25 21 56 0 16 4 22 15 18 25 -10 28 -45 9
-100 -17 -50 -17 -54 -1 -72 24 -27 23 -55 -3 -47 -19 6 -20 2 -20 -69 0 -86
19 -107 21 -23 1 50 1 51 11 20 9 -26 6 -52 -16 -135 -23 -94 -35 -218 -20
-218 3 0 14 10 24 22 l17 22 13 -25 c17 -31 27 -189 12 -189 -6 0 -14 5 -17
10 -16 25 -25 4 -25 -57 0 -65 0 -66 20 -48 24 22 24 25 1 -77 -27 -116 -34
-181 -26 -228 7 -40 7 -40 42 -34 l34 6 -20 -33 c-26 -43 -26 -65 -1 -86 27
-24 25 -43 -5 -43 -22 0 -25 -4 -25 -32 0 -18 9 -48 21 -67 19 -32 20 -35 3
-69 -30 -63 -28 -109 5 -213 37 -114 39 -167 9 -220 l-22 -39 27 -28 c37 -38
38 -93 2 -112 -34 -18 -32 -63 3 -68 16 -3 22 -10 22 -28 0 -21 -3 -24 -26
-18 -25 7 -27 5 -20 -22 4 -16 21 -39 37 -52 39 -31 39 -66 -1 -82 -23 -10
-30 -19 -30 -40 0 -22 6 -30 30 -39 34 -11 33 -11 20 -45 l-9 -25 -56 25 c-30
14 -111 39 -179 56 l-123 30 -7 51 c-3 29 -6 176 -6 327 0 310 -4 347 -32 356
-15 5 -19 12 -14 32 3 15 11 80 17 145 17 175 -6 379 -48 429 -13 15 -12 20 9
48 26 36 28 82 17 349 l-7 144 -31 13 c-24 10 -31 19 -31 40 0 22 3 25 22 21
38 -10 43 5 37 110 -4 54 -7 148 -8 208 -1 61 -4 134 -8 163 -6 53 -7 54 -35
48 l-28 -5 0 69 c0 39 4 70 8 70 16 0 32 -24 32 -48 0 -13 4 -20 10 -17 11 7
14 98 4 108 -4 3 -17 -1 -30 -10 l-24 -15 0 56 0 56 25 -12 c14 -6 27 -9 30
-6 3 3 1 29 -5 58 -5 29 -10 135 -10 236 l0 184 -29 0 c-35 0 -46 24 -36 71 5
23 10 28 18 20 6 -6 19 -11 28 -11 15 0 16 5 8 32 -5 18 -9 118 -9 223 0 202
-6 231 -48 250 -12 5 -22 18 -22 27 0 14 7 18 33 16 27 -3 31 0 28 17 -1 11
-6 117 -10 235 -8 220 -15 260 -51 282 -28 18 -27 52 2 45 36 -10 47 7 36 61
-5 26 -10 134 -11 239 -2 181 -9 230 -23 166 -3 -16 -7 -34 -10 -41 -2 -7 1
-73 7 -148 6 -74 8 -147 4 -162 l-7 -27 -13 25 c-27 50 -38 160 -31 320 4 104
1 219 -9 350 -8 107 -15 245 -15 305 0 110 0 110 19 85 16 -20 21 -22 35 -11
19 16 22 91 4 109 -17 17 -28 15 -28 -7 0 -30 -11 -51 -26 -51 -16 0 -17 10
-5 42 5 14 3 46 -5 83 -19 89 -18 127 3 123 13 -2 20 -18 26 -58 5 -30 14 -59
19 -65 10 -10 10 16 -8 570 -3 99 -8 186 -10 194 -7 20 -44 -16 -44 -43 0 -17
-2 -18 -10 -6 -5 8 -10 34 -10 56 0 41 1 42 33 40 28 -1 32 2 30 24 -1 14 -5
130 -9 258 -4 128 -11 235 -16 238 -14 9 -38 -16 -39 -40 0 -20 0 -20 -8 -1
-23 56 -20 268 5 348 6 18 6 18 19 0 13 -17 16 -15 48 22 28 33 40 39 70 38
45 -1 48 11 7 26 -33 11 -55 7 -82 -17 -16 -14 -18 -13 -18 5 0 26 14 32 115
48 115 18 111 19 121 -17z m717 -92 c51 -19 76 -42 99 -94 17 -38 19 -63 16
-260 l-3 -218 28 -53 c27 -52 27 -54 27 -250 0 -188 -1 -201 -25 -259 -34 -83
-35 -175 -2 -223 l23 -34 -19 -44 c-28 -65 -21 -194 17 -276 l27 -61 -17 -64
c-14 -54 -18 -129 -21 -445 -4 -304 -2 -378 8 -368 9 9 12 45 11 119 -3 108 4
121 32 66 23 -47 26 -88 10 -184 -18 -115 -19 -170 -4 -300 11 -98 11 -107
-13 -203 -33 -128 -41 -192 -32 -250 l7 -47 22 21 c43 40 46 31 46 -124 0
-141 -1 -145 -19 -135 -24 12 -35 59 -26 108 5 30 4 35 -6 25 -29 -28 -13
-691 16 -687 6 1 20 5 33 9 20 6 22 3 22 -27 0 -18 -7 -94 -17 -169 -16 -129
-16 -140 1 -200 21 -80 21 -85 -9 -81 -24 3 -25 1 -25 -52 0 -55 13 -106 30
-116 5 -3 2 -26 -8 -50 -14 -39 -16 -83 -14 -320 2 -151 5 -276 7 -278 2 -2
14 3 27 12 36 26 56 20 29 -8 -36 -38 -67 -166 -41 -166 6 0 10 5 10 10 0 6 5
10 10 10 15 0 12 -38 -10 -118 -25 -91 -26 -109 -4 -91 14 11 18 10 30 -6 17
-23 18 -49 3 -76 -9 -17 -13 -18 -26 -8 -14 12 -15 -19 -10 -301 4 -276 7
-324 25 -390 30 -110 34 -129 24 -106 -11 25 -17 14 -32 -59 -16 -78 1 -237
36 -330 7 -17 5 -18 -8 -8 -8 7 -18 10 -21 6 -12 -11 -8 -185 3 -178 6 3 10
17 10 31 0 26 9 31 28 12 18 -18 15 -30 -23 -94 -34 -57 -43 -96 -26 -122 6
-10 10 -10 21 3 25 30 32 16 26 -48 -4 -36 -3 -74 3 -90 6 -15 7 -27 2 -27 -5
0 -50 16 -100 35 -90 34 -155 47 -241 49 l-45 1 -17 170 c-11 110 -20 312 -24
568 -4 219 -10 394 -15 390 -4 -4 -10 -30 -12 -58 -5 -58 1 77 9 216 6 87 4
101 -17 145 -33 70 -33 70 -18 56 7 -6 17 -12 21 -12 4 0 8 134 8 297 l0 297
-26 21 c-26 20 -26 22 -16 87 10 66 7 102 -10 125 -6 8 -2 22 13 43 23 30 23
36 19 198 -2 92 -4 222 -5 289 0 81 -3 119 -10 112 -6 -6 -10 -76 -10 -167 -1
-226 -3 -264 -15 -257 -7 4 -10 39 -9 87 2 55 -1 82 -10 87 -9 6 -10 18 0 55
12 47 9 168 -7 295 -7 53 -7 54 16 48 38 -10 50 7 37 51 -7 23 -12 119 -12
255 0 119 -3 217 -7 217 -14 0 -20 -42 -17 -120 4 -90 -3 -107 -19 -53 -27 93
-34 182 -27 383 3 116 1 259 -4 330 -15 176 -26 530 -17 530 4 0 16 -10 26
-22 l17 -22 14 25 c20 35 16 235 -12 469 -14 127 -22 259 -23 378 -1 155 -3
180 -14 165 -10 -13 -12 -38 -8 -87 5 -74 -1 -129 -15 -120 -5 3 -9 47 -9 98
0 50 -4 96 -9 102 -6 5 -5 48 4 114 19 146 35 420 35 604 0 137 -2 155 -17
158 -24 4 -57 138 -37 153 23 17 33 204 27 480 -7 308 -9 300 105 334 75 23
112 45 112 67 0 18 33 18 83 0z m2422 -10 c9 -13 22 -55 29 -95 14 -71 28
-101 50 -101 8 0 11 -52 9 -179 -1 -142 -4 -185 -17 -210 -9 -17 -23 -31 -31
-31 -24 0 -18 -48 10 -73 l24 -22 -9 -265 c-6 -146 -23 -512 -40 -815 -16
-302 -32 -656 -36 -785 -5 -189 -10 -238 -22 -252 -8 -10 -21 -18 -28 -18 -7
0 -19 -10 -25 -22 -10 -19 -8 -25 17 -46 27 -24 28 -27 26 -116 -9 -345 -49
-1229 -102 -2253 -29 -561 -29 -562 -54 -600 -16 -24 -29 -63 -35 -108 -15
-103 -15 -103 22 -107 37 -3 37 -4 17 -136 -11 -66 -11 -113 -2 -230 20 -240
16 -335 -15 -417 -25 -67 -26 -80 -30 -323 -3 -139 -8 -251 -11 -248 -3 3 -8
22 -11 42 -6 35 -6 36 -24 17 -16 -19 -16 -21 13 -64 16 -24 30 -56 30 -71 0
-26 -3 -28 -42 -28 -24 0 -89 -9 -146 -20 -154 -30 -143 -35 -136 62 4 57 1
119 -11 198 -10 63 -19 171 -21 238 l-3 124 24 -6 25 -6 0 197 c0 109 7 308
15 443 24 394 19 800 -11 901 -3 10 3 18 15 22 15 4 21 17 26 62 10 74 -1 479
-13 527 -8 30 -7 40 5 50 33 27 36 63 34 393 -2 294 -6 371 -26 493 -6 31 -5
32 19 26 l26 -6 -6 78 c-4 49 0 125 10 201 22 167 21 266 -4 338 -25 73 -25
112 -1 200 11 39 24 115 31 170 18 166 32 655 25 905 -5 207 2 497 22 872 5
94 2 130 -12 185 -16 64 -16 71 -1 123 11 36 20 122 26 245 17 337 31 390 109
429 27 14 79 50 117 80 79 64 122 73 149 32z m-806 -53 c10 -23 16 -25 50 -19
38 6 38 6 43 -32 3 -20 20 -59 37 -87 17 -27 31 -52 31 -57 0 -4 -13 -5 -30
-1 -24 4 -30 2 -30 -11 0 -20 19 -58 33 -68 19 -12 29 -235 23 -553 -3 -176
-9 -336 -14 -355 l-9 -35 -12 25 c-8 19 -10 -71 -6 -380 3 -238 1 -397 -4
-385 -8 19 -9 19 -19 -6 -37 -93 -51 -452 -20 -521 15 -34 15 -42 2 -73 -17
-40 -12 -69 24 -140 24 -48 24 -55 19 -195 -5 -154 -23 -263 -38 -239 -5 8 -9
12 -9 9 -23 -236 -37 -780 -23 -949 5 -70 9 -84 25 -89 12 -3 17 -10 13 -21
-2 -9 -9 -38 -14 -64 -5 -26 -15 -55 -23 -65 -13 -14 -17 -86 -22 -442 -4
-234 -16 -742 -26 -1130 -11 -388 -20 -931 -20 -1208 l0 -502 -27 -11 c-18 -7
-71 -9 -143 -6 -82 4 -126 2 -152 -7 l-37 -13 -12 50 c-9 37 -10 110 -5 261 5
175 4 221 -9 270 -9 33 -20 65 -26 72 -7 9 -6 43 5 113 30 186 37 426 30 1033
-4 323 -11 585 -16 582 -4 -3 -8 -33 -8 -67 0 -38 -4 -57 -9 -52 -12 13 -14
40 -13 147 l2 88 30 -6 c22 -5 30 -3 30 7 -1 8 1 543 4 1189 4 813 2 1164 -5
1140 -6 -22 -13 -335 -17 -827 -4 -435 -10 -794 -13 -797 -12 -13 -19 399 -19
1179 0 736 5 1185 26 2553 l7 453 31 -3 c28 -3 31 0 36 30 8 51 83 137 133
151 51 15 115 52 140 79 23 25 40 20 56 -15z m-769 -8 c51 -26 60 -50 60 -155
0 -76 4 -101 19 -126 17 -28 17 -31 3 -30 -13 1 -18 -9 -20 -39 -2 -22 -8 -45
-13 -51 -6 -8 -6 -29 1 -59 6 -28 9 -146 8 -293 -3 -232 -2 -251 19 -307 29
-80 28 -252 -1 -284 -19 -21 -14 -41 10 -41 17 0 18 6 -7 -65 -12 -33 -22 -88
-23 -122 -1 -55 2 -65 27 -90 31 -34 34 -60 10 -126 -14 -39 -15 -51 -5 -68
12 -19 11 -19 -9 -8 l-22 11 7 -153 c3 -85 11 -185 16 -224 14 -105 12 -299
-5 -400 -18 -112 -19 -105 5 -105 18 0 20 -7 20 -59 0 -33 -7 -91 -15 -129
-29 -137 -36 -208 -30 -270 6 -56 9 -63 26 -59 16 4 19 -1 20 -31 2 -60 -1
-81 -28 -204 -27 -126 -26 -228 2 -228 8 0 20 -23 29 -54 9 -29 23 -59 31 -66
12 -10 15 -46 15 -206 0 -118 -4 -195 -10 -199 -12 -8 -13 -2 -10 116 2 89 0
98 -21 118 -13 11 -26 21 -31 21 -12 0 -10 -196 3 -304 10 -89 6 -166 -17
-300 -7 -36 -6 -39 12 -31 10 4 32 10 48 13 l28 5 -3 -96 c-3 -80 -7 -100 -24
-117 -19 -18 -20 -26 -11 -120 10 -112 -1 -191 -33 -232 -18 -22 -18 -26 0
-118 25 -127 25 -297 0 -415 -11 -49 -22 -98 -26 -107 -6 -15 -2 -18 19 -18
15 0 29 -7 33 -15 3 -9 2 -86 -3 -173 -4 -86 -9 -149 -11 -139 -6 22 -19 22
-27 0 -11 -28 -19 -130 -12 -157 4 -16 13 -26 25 -26 10 0 22 -7 25 -16 10
-26 7 -501 -5 -645 -5 -73 -16 -178 -24 -231 -12 -91 -12 -100 6 -135 10 -20
19 -55 19 -78 0 -45 -17 -155 -24 -163 -3 -3 -72 3 -153 12 -82 9 -169 16
-194 16 l-46 0 -7 66 c-4 36 -4 129 0 205 6 122 5 139 -8 139 -9 0 -19 -8 -23
-17 -7 -17 -8 -16 -15 2 -15 35 -11 79 16 166 28 94 28 163 -1 220 -17 33 -17
33 9 56 l27 23 -12 133 c-8 88 -11 353 -10 802 l1 670 -21 16 c-19 14 -23 30
-28 125 -4 60 -11 115 -16 123 -6 11 -4 13 9 8 12 -5 24 0 37 15 25 31 24 43
-7 71 l-25 24 12 129 c15 165 19 1308 4 1293 -6 -6 -10 -75 -10 -164 0 -84 -3
-156 -7 -160 -3 -4 -15 6 -25 21 -16 25 -18 49 -16 219 1 104 7 345 14 535 16
477 3 765 -36 794 -17 12 -17 16 -4 47 11 26 14 79 12 224 -1 105 -4 483 -8
840 -4 471 -3 666 5 710 14 68 48 141 80 170 26 23 25 19 -11 -50 -39 -74 -59
-150 -59 -226 0 -75 11 -92 35 -56 12 18 15 47 13 128 l-3 104 58 55 c74 69
95 80 165 87 62 5 112 20 112 34 0 14 28 11 60 -6z m150 -603 c0 -83 -4 -131
-10 -127 -5 3 -12 21 -16 40 -3 18 -14 41 -24 50 -16 15 -16 18 6 62 15 28 24
64 24 92 0 33 3 42 10 31 5 -8 10 -75 10 -148z m-2080 -392 c11 -151 20 -313
19 -360 l-1 -85 -19 75 c-26 103 -39 319 -37 605 1 268 0 274 38 -235z m2081
37 c4 -89 10 -170 14 -179 4 -11 3 -18 -4 -18 -7 0 -19 16 -27 36 -13 30 -14
63 -8 186 4 81 9 146 13 143 3 -4 9 -79 12 -168z m0 -490 c10 -118 6 -257 -7
-245 -15 15 -23 128 -17 248 3 77 8 139 10 137 2 -2 8 -65 14 -140z m-2 -581
c0 -110 -1 -197 -4 -194 -16 16 -24 141 -18 288 9 213 20 165 22 -94z m1
-1005 c0 -126 -3 -182 -10 -175 -12 12 -16 117 -12 279 4 184 22 101 22 -104z
m-1 -511 c0 -134 -3 -190 -10 -178 -11 20 -15 125 -11 293 5 191 21 107 21
-115z m199 -2039 l-3 -146 -20 30 c-24 35 -26 122 -6 235 20 111 32 61 29
-119z m1265 -323 c4 -35 2 -108 -3 -163 -5 -55 -9 -152 -10 -214 0 -92 -2
-112 -12 -102 -10 9 -12 68 -10 239 3 232 8 302 21 302 5 0 11 -28 14 -62z
m-4046 -1119 c13 -24 18 -149 7 -149 -39 0 -64 56 -64 143 0 59 0 59 23 45 12
-8 28 -26 34 -39z m5192 -16 c25 -90 -3 -203 -51 -203 -4 0 -8 41 -8 90 0 128
36 196 59 113z m-5074 -35 c9 -29 19 -83 22 -120 6 -64 5 -68 -15 -68 -42 0
-72 61 -72 147 0 23 -4 53 -10 67 -9 25 -8 26 25 26 33 0 35 -2 50 -52z m4969
-37 c11 -93 -20 -191 -59 -191 -16 0 -19 127 -5 199 20 104 52 101 64 -8z
m-4809 -68 l25 -41 93 5 c130 8 152 -1 270 -114 73 -70 103 -93 115 -87 33 14
194 17 251 4 75 -16 166 -60 240 -116 l61 -46 88 12 c149 19 305 -11 463 -90
85 -43 89 -43 214 5 92 35 167 31 323 -19 152 -48 199 -52 292 -26 192 54 215
56 382 37 181 -20 197 -17 378 56 146 59 223 70 296 42 l45 -17 93 57 c52 31
123 68 157 82 73 30 183 41 244 24 l40 -10 -2 -123 -1 -123 -69 -27 c-37 -15
-81 -27 -98 -25 l-30 2 -5 130 c-5 141 -20 139 -20 -3 0 -46 -5 -103 -11 -126
-10 -41 -14 -45 -62 -61 -64 -21 -164 -44 -196 -45 -21 0 -23 3 -18 38 3 20 9
49 12 65 6 21 4 27 -8 27 -24 0 -30 -17 -28 -84 1 -37 -4 -68 -11 -78 -14 -17
-213 -64 -388 -92 -546 -88 -1238 -76 -1775 30 -224 44 -471 115 -652 186 -91
36 -101 43 -93 59 13 23 12 70 -4 144 -12 56 -13 58 -25 37 -10 -18 -9 -34 3
-83 21 -81 20 -89 -8 -89 -36 0 -85 19 -159 63 -37 22 -84 45 -105 53 -22 7
-36 18 -33 26 2 7 6 42 9 77 4 52 2 63 -9 59 -10 -4 -13 -20 -11 -63 l3 -58
-33 7 c-34 6 -96 43 -257 151 l-90 60 -1 115 0 114 41 -39 c22 -22 51 -59 64
-82z m4693 -6 c5 -61 -18 -152 -47 -188 l-18 -23 -13 23 c-19 36 -8 127 25
199 33 73 46 70 53 -11z m-155 -48 c21 -10 23 -15 19 -67 -7 -104 -38 -162
-87 -162 -22 0 -22 0 -8 96 22 145 27 155 76 133z m-113 -87 c0 -102 -21 -173
-61 -207 -18 -14 -37 -24 -43 -22 -18 6 -37 108 -31 170 8 95 38 137 97 137
l38 0 0 -78z m-175 -12 c14 -16 16 -29 11 -67 -4 -27 -9 -78 -13 -114 l-5 -66
-62 -32 c-33 -17 -66 -31 -73 -31 -29 0 -28 136 3 208 13 31 98 122 115 122 3
0 14 -9 24 -20z"/>
<path d="M3641 12539 c-14 -91 -31 -292 -31 -376 l0 -63 183 0 c388 -1 995
-24 1196 -46 l54 -6 -8 149 c-4 81 -10 198 -14 258 l-6 110 -60 7 c-33 4 -310
12 -615 17 -305 5 -585 13 -621 17 l-66 7 -12 -74z m719 -4 c184 -8 397 -15
472 -15 l136 0 6 -27 c21 -104 27 -199 15 -240 l-12 -43 -56 0 c-358 1 -933
31 -1110 58 l-44 7 2 90 c4 143 11 169 46 176 50 11 194 9 545 -6z m125 -345
c176 -6 334 -12 350 -15 117 -22 145 -29 138 -36 -21 -21 -280 -31 -503 -19
-354 19 -423 24 -426 35 -6 19 59 54 91 49 17 -3 174 -9 350 -14z"/>
<path d="M1270 9337 c-3 -3 -5 -115 -4 -249 0 -244 6 -297 40 -342 21 -29 24
-18 14 59 -4 39 -14 160 -20 270 -12 196 -20 271 -30 262z"/>
<path d="M6447 9133 c-4 -76 -11 -156 -17 -178 -12 -50 -13 -225 -1 -225 16 0
21 30 21 115 0 47 7 135 16 197 16 115 15 201 -3 219 -7 7 -12 -37 -16 -128z"/>
<path d="M6155 9070 c-3 -6 -10 -94 -15 -198 -10 -196 -18 -292 -26 -320 -4
-10 5 -6 20 11 25 27 26 33 26 155 0 94 5 147 20 202 24 93 26 146 4 154 -21
8 -22 8 -29 -4z"/>
<path d="M5847 8874 c-3 -3 -3 -27 0 -53 3 -25 -2 -135 -11 -243 -18 -223 -20
-302 -7 -294 16 10 21 58 31 268 5 113 14 225 20 247 14 52 -7 100 -33 75z"/>
<path d="M7050 4333 c0 -12 -4 -25 -10 -28 -6 -4 -10 -68 -10 -161 0 -96 4
-154 10 -154 6 0 10 29 10 68 0 37 5 87 11 111 13 59 14 145 0 168 -10 17 -10
16 -11 -4z"/>
<path d="M6996 3778 c-3 -84 -13 -198 -21 -253 -7 -55 -12 -101 -10 -103 2 -2
13 6 26 19 21 21 21 27 15 130 -6 93 -4 121 14 192 24 95 24 160 -1 165 -14 2
-17 -18 -23 -150z"/>
<path d="M6887 2418 c-3 -95 -13 -216 -21 -268 -19 -115 -19 -113 -5 -104 26
15 40 84 55 270 13 154 14 205 5 236 -7 21 -15 38 -20 38 -4 0 -11 -78 -14
-172z"/>
<path d="M1898 5506 c3 -122 17 -200 39 -218 14 -11 15 -10 7 12 -5 14 -8 70
-7 125 3 103 -8 170 -30 178 -9 3 -11 -19 -9 -97z"/>
<path d="M2114 1810 c2 -107 9 -219 16 -247 27 -122 30 -49 9 246 -16 231 -30
232 -25 1z"/>
<path d="M6202 8098 c-12 -24 -22 -58 -22 -76 0 -18 -7 -76 -16 -129 -14 -92
-12 -173 6 -173 8 0 13 40 28 229 7 91 8 94 46 131 40 39 41 60 3 60 -16 0
-29 -12 -45 -42z"/>
<path d="M5927 3457 c-4 -73 -11 -181 -17 -242 -10 -106 -7 -188 11 -230 5
-13 8 8 8 57 1 43 8 153 16 245 15 157 13 287 -5 298 -4 2 -10 -55 -13 -128z"/>
<path d="M5856 1958 c-15 -71 -26 -162 -26 -211 0 -55 15 -107 32 -107 4 0 8
77 8 170 0 161 -4 199 -14 148z"/>
<path d="M2681 7329 c0 -20 -4 -51 -7 -68 -4 -18 -2 -31 4 -31 14 0 20 41 12
91 -7 44 -8 44 -9 8z"/>
<path d="M2380 6155 c-4 -140 0 -287 10 -345 l7 -45 8 59 c8 61 -1 317 -15
396 -6 37 -8 25 -10 -65z"/>
<path d="M2574 2924 c-10 -40 -10 -106 0 -258 7 -100 11 -124 20 -110 7 13 10
81 8 199 -3 173 -12 231 -28 169z"/>
<path d="M3027 5114 c-3 -4 1 -20 10 -37 12 -24 17 -78 23 -222 l7 -190 -1
225 c-1 194 -3 225 -16 228 -9 1 -19 0 -23 -4z"/>
<path d="M5467 8019 c-10 -6 -29 -28 -42 -49 -24 -37 -25 -48 -25 -185 0 -95
4 -144 10 -140 6 4 10 60 10 136 l0 129 34 37 c60 69 67 103 13 72z"/>
<path d="M5221 1905 c1 -141 4 -191 10 -170 15 47 16 326 2 350 -10 16 -12
-19 -12 -180z"/>
<path d="M4528 7248 c2 -297 -1 -584 -6 -663 -11 -139 -5 -216 17 -238 9 -9
11 118 9 513 -2 384 1 547 10 608 19 119 17 209 -3 260 -9 23 -20 42 -24 42
-3 0 -4 -235 -3 -522z"/>
<path d="M4623 7045 c-12 -60 -10 -287 3 -309 10 -17 13 -9 20 50 12 96 10
255 -3 279 -10 17 -12 15 -20 -20z"/>
<path d="M5013 7005 c0 -22 2 -30 4 -17 2 12 2 30 0 40 -3 9 -5 -1 -4 -23z"/>
<path d="M4616 5892 c0 -282 4 -479 10 -496 7 -20 10 119 10 450 -1 300 -5
485 -11 496 -7 11 -10 -135 -9 -450z"/>
<path d="M4514 6225 c-12 -94 -10 -600 3 -650 10 -39 10 -37 19 50 12 121 10
580 -3 630 l-10 40 -9 -70z"/>
<path d="M4590 4204 c0 -197 2 -225 14 -214 31 25 37 75 31 250 -3 95 -8 177
-11 181 -3 5 -12 9 -20 9 -12 0 -14 -36 -14 -226z"/>
<path d="M4590 3399 c0 -13 -5 -82 -10 -154 -12 -153 -12 -789 -1 -890 8 -66
8 -62 10 55 0 69 8 253 17 410 12 225 13 316 5 439 -6 85 -13 157 -16 159 -3
3 -5 -6 -5 -19z"/>
<path d="M4571 1510 c0 -118 4 -224 9 -235 5 -12 9 68 9 200 0 126 -3 226 -9
235 -6 10 -10 -58 -9 -200z"/>
<path d="M3724 6425 c2 -540 6 -737 15 -755 9 -19 10 124 5 650 -3 371 -10
711 -14 755 -4 44 -7 -248 -6 -650z"/>
</g>
</svg>
