<svg xmlns="http://www.w3.org/2000/svg" viewBox="0 0 30 30" width="30px" height="30px"><path fill="#c2e8ff" d="M6.5 25.5L6.5 25 3.494 4.926 3.497 4.5 26.5 4.5 26.5 5 23.506 24.926 23.503 25.5z"/><path fill="#788b9c" d="M25.989,5l-2.978,19.852L23,24.925V25H7v-0.075l-0.011-0.074L4.011,5H25.989 M27,4H3v1l3,20v1h18v-1 l3-20V4L27,4z"/><path fill="#dcd5f2" d="M3,4.5C2.725,4.5,2.5,4.276,2.5,4V2c0-0.276,0.225-0.5,0.5-0.5h24c0.275,0,0.5,0.224,0.5,0.5v2 c0,0.276-0.225,0.5-0.5,0.5H3z"/><path fill="#8b75a1" d="M27,2v2H3V2H27 M27,1H3C2.448,1,2,1.448,2,2v2c0,0.552,0.448,1,1,1h24c0.552,0,1-0.448,1-1V2 C28,1.448,27.552,1,27,1L27,1z"/><g><path fill="#dcd5f2" d="M8,28.5c-0.827,0-1.5-0.673-1.5-1.5v-1.5h17V27c0,0.827-0.673,1.5-1.5,1.5H8z"/><path fill="#8b75a1" d="M23,26v1c0,0.551-0.449,1-1,1H8c-0.551,0-1-0.449-1-1v-1H23 M24,25H6v2c0,1.105,0.895,2,2,2h14 c1.105,0,2-0.895,2-2V25L24,25z"/></g><g><path fill="#4e7ab5" d="M20.187 15.981l-.805-1.359-.503 1.106-1.217-.086L18.467 17h-2.31l-.966 1 .966 1h2.314c.834 0 1.51-.355 1.854-.975C20.666 17.411 20.611 16.658 20.187 15.981zM18.277 12.663l-1.524-2.588C16.327 9.392 15.697 9 15.024 9c-.672 0-1.302.392-1.739 1.093l-.956 1.61 1.187-.023.532 1.045.945-1.591c.011-.019.022-.035.032-.05.006.009.012.018.018.027l1.51 2.566 1.37.347L18.277 12.663zM11.54 16.989l1.358-2.365-.353-1.306-1.381.31-1.354 2.356c-.423.72-.47 1.476-.128 2.074C10.025 18.657 10.698 19 11.528 19h2.466l-.714-1 .714-1h-2.461C11.535 16.996 11.538 16.993 11.54 16.989z"/></g></svg>